# xmcd CD database file
#
# Track frame offsets:
#	150
#	18485
#	30072
#	53132
#	67047
#	82085
#	100017
#	112755
#	127777
#	141317
#
# Disc length: 2093 seconds
#
# Revision: 0
# Processed by: cddbd v1.5.2PL0 Copyright (c) Steve Scherf et al.
# Submitted via: CDex 1.51
#
DISCID=76082b0a
DTITLE=Cal Tjader Quintet and Quartet - Tjader Plays Jazz
DYEAR=1988
DGENRE=Jazz
TTITLE0=Moten Swing
TTITLE1=I've Never Been In Love Before
TTITLE2=There Will Never Be Another You
TTITLE3=How About You
TTITLE4=Jeepers Creepers
TTITLE5=A Minor Goof
TTITLE6=My One And Only Love
TTITLE7=Imagination
TTITLE8=I'll Know
TTITLE9=Brew's Blues
EXTD=YEAR: 1988
EXTT0=
EXTT1=
EXTT2=
EXTT3=
EXTT4=
EXTT5=
EXTT6=
EXTT7=
EXTT8=
EXTT9=
PLAYORDER=
